<svg width="24" height="24" xmlns="http://www.w3.org/2000/svg" xmlns:xlink="http://www.w3.org/1999/xlink" xml:space="preserve" overflow="hidden"><defs><clipPath id="clip0"><rect x="4" y="283" width="24" height="24"/></clipPath></defs><g clip-path="url(#clip0)" transform="translate(-4 -283)"><path d="M7.5 286.5 11 286.5 11 290 7.5 290Z" fill="#767171"/><path d="M18.5592 299.878C18.3857 299.71 18.1086 299.714 17.9403 299.887 17.7756 300.057 17.7756 300.327 17.9403 300.497L18.4432 301 16 301 16 287.75 12 287.75 12 288.75 15 288.75 15 302 18.445 302 17.9403 302.503C17.7719 302.676 17.7761 302.953 17.9497 303.122 18.1195 303.286 18.3895 303.286 18.5592 303.122L19.8717 301.81C20.0427 301.638 20.0427 301.361 19.8717 301.19Z" fill="#767171"/><path d="M24.5 301.5C24.5 302.605 23.6046 303.5 22.5 303.5 21.3954 303.5 20.5 302.605 20.5 301.5 20.5 300.395 21.3954 299.5 22.5 299.5 23.6046 299.5 24.5 300.395 24.5 301.5Z" fill="#767171"/></g></svg>