<svg width="24" height="24" xmlns="http://www.w3.org/2000/svg" xmlns:xlink="http://www.w3.org/1999/xlink" xml:space="preserve" overflow="hidden"><defs><clipPath id="clip0"><rect x="230" y="9" width="24" height="24"/></clipPath></defs><g clip-path="url(#clip0)" transform="translate(-230 -9)"><path d="M233.5 12.5 237 12.5 237 16 233.5 16Z" fill="#FFFFFF"/><path d="M244.559 25.878C244.386 25.7097 244.109 25.7139 243.94 25.8874 243.776 26.0572 243.776 26.3272 243.94 26.497L244.443 27 242 27 242 13.75 238 13.75 238 14.75 241 14.75 241 28 244.445 28 243.94 28.5028C243.772 28.6763 243.776 28.9534 243.95 29.1217 244.12 29.2864 244.389 29.2864 244.559 29.1217L245.872 27.8095C246.043 27.6385 246.043 27.3613 245.872 27.1903Z" fill="#FFFFFF"/><path d="M250.5 27.5C250.5 28.6046 249.605 29.5 248.5 29.5 247.395 29.5 246.5 28.6046 246.5 27.5 246.5 26.3954 247.395 25.5 248.5 25.5 249.605 25.5 250.5 26.3954 250.5 27.5Z" fill="#FFFFFF"/></g></svg>