<svg width="1011" height="112" xmlns="http://www.w3.org/2000/svg" xmlns:xlink="http://www.w3.org/1999/xlink" xml:space="preserve" overflow="hidden"><defs><clipPath id="clip0"><rect x="42" y="6" width="1011" height="112"/></clipPath></defs><g clip-path="url(#clip0)" transform="translate(-42 -6)"><path d="M-82.3626 202.131C-75.4855 216.296-70.2384 238.164-32.8704 243.345 4.49735 248.524 76.9147 240.337 141.844 233.214 206.774 226.089 289.776 204.685 356.708 200.597 423.642 196.509 489.415 206.097 543.441 208.686 597.469 211.275 644.128 215.078 680.872 216.131 717.613 217.185 735.083 216.45 763.903 215.006 792.723 213.562 825.142 210.138 853.786 207.466 882.428 204.794 910.248 201.785 935.755 198.975 961.264 196.166 986.897 192.341 1006.83 190.607 1026.77 188.873 1040.66 190.45 1055.37 188.573 1070.09 186.696 1062.04 196.848 1073.25 195.78 1084.46 194.713 1116.8 204.265 1122.64 182.167 1128.48 160.069 1114.26 136.931 1099.29 94.7992" fill="#585BFF" fill-rule="evenodd" transform="matrix(1.00511 0 0 1 48.398 -126.976)"/><path d="M-37.5332 151.67C-41.7342 183.574-58.1633 192.426-46.1081 201.14-34.0531 209.854 8.2838 204.328 34.7972 203.954 61.3107 203.579 82.774 200.44 112.972 198.894 143.171 197.348 188.103 195.942 215.988 194.677 243.873 193.412 251.544 192.148 280.282 191.304 309.02 190.461 329.842 188.142 388.411 189.618 446.983 191.093 559.374 198.894 631.705 200.159L822.395 197.207C870.005 195.802 877.674 195.34 917.374 191.726 957.073 188.112 1015.05 187.611 1060.59 175.524 1106.13 163.437 1148.73 150.686 1190.62 119.203" fill="#F3D31D" fill-rule="evenodd" transform="matrix(1.00511 0 0 1 48.398 -126.976)"/><path d="M-53.6812 118.499C-59.6472 144.87-68.0585 178.221-43.7076 188.658-19.3566 199.094 55.247 183.214 92.4245 181.119 129.602 179.024 148.31 177.019 179.357 176.087 210.405 175.155 278.71 175.528 278.71 175.528 320.348 175.714 381.226 175.808 429.199 177.205 477.171 178.603 520.879 184.194 566.538 183.915 612.196 183.635 673.074 177.205 703.147 175.528 733.22 173.851 731.272 173.571 746.978 173.851 762.685 174.13 774.739 177.299 797.385 177.205 820.032 177.112 853.514 172.453 882.857 173.292 912.2 174.13 943.24 184.929 973.442 182.238 1003.65 179.546 1033.39 167.485 1064.08 157.142 1094.76 146.798 1126.49 142.68 1157.54 120.176" fill="#E23C70" fill-rule="evenodd" transform="matrix(1.00511 0 0 1 48.398 -126.976)"/><path d="M-38.2482 120.098C-11.1195 136.806-44.9423 165.169-3.18666 173.306 38.5692 181.444 150.496 171.559 212.286 168.924 274.078 166.29 311.924 159.921 367.558 157.497 423.191 155.073 489.699 153.861 546.083 154.38 602.465 154.9 665.474 158.19 705.855 160.613 746.234 163.037 748.36 168.924 788.365 168.924 828.371 168.924 894.334 165.359 945.887 160.613 997.442 155.869 1058.93 152.401 1097.69 140.455 1136.44 128.508 1156.92 126.072 1178.42 88.9329" fill="#E68B30" fill-rule="evenodd" transform="matrix(1.00511 0 0 1 48.398 -126.976)"/><path d="M-48.3382 129.075C-33.3606 138.182-18.3832 147.289 14.4944 150.715 47.3721 154.142 104.725 149.137 148.927 149.633 193.129 150.129 229.051 153.826 279.707 153.691 330.363 153.555 452.861 148.822 452.861 148.822L687.388 144.312C749.491 145.258 826.041 159.686 896.903 158.295 967.768 156.905 1062.04 140.521 1112.57 135.968 1163.1 131.414 1145.91 135.995 1128.68 127.181" fill="#F3D31D" fill-rule="evenodd" transform="matrix(1.00511 0 0 1 48.398 -126.976)"/></g></svg>