<svg width="23" height="24" xmlns="http://www.w3.org/2000/svg" xmlns:xlink="http://www.w3.org/1999/xlink" xml:space="preserve" overflow="hidden"><defs><clipPath id="clip0"><rect x="17" y="14" width="23" height="24"/></clipPath></defs><g clip-path="url(#clip0)" transform="translate(-17 -14)"><path d="M18.9863 17.9688 5.03125 4.01494 5.03125 2.15625 2.15625 2.15625 2.15625 5.03125 2.875 5.03125 2.875 17.9688 2.15625 17.9688 2.15625 20.8438 5.03125 20.8438 5.03125 20.125 17.9688 20.125 17.9688 20.8438 20.8438 20.8438 20.8438 17.9688ZM17.6719 18.6875 9.10417 18.6875 9.10417 13.8958 4.3125 13.8958 4.3125 5.32905ZM3.11458 3.11458 4.07292 3.11458 4.07292 4.07292 3.11458 4.07292ZM4.07292 19.8854 3.11458 19.8854 3.11458 18.9271 4.07292 18.9271ZM4.3125 17.9688 4.3125 15.3333 7.66667 15.3333 7.66667 18.6875 5.03125 18.6875 5.03125 17.9688ZM19.8854 19.8854 18.9271 19.8854 18.9271 18.9271 19.8854 18.9271Z" fill="#FFFFFF" transform="matrix(1 0 0 1.04348 17 14)"/></g></svg>