<svg width="335" height="203" xmlns="http://www.w3.org/2000/svg" xmlns:xlink="http://www.w3.org/1999/xlink" xml:space="preserve" overflow="hidden"><defs><clipPath id="clip0"><rect x="2211" y="1035" width="335" height="203"/></clipPath></defs><g clip-path="url(#clip0)" transform="translate(-2211 -1035)"><path d="M2213.5 1202.5 2213.5 1070.5C2213.5 1052.27 2287.37 1037.5 2378.5 1037.5 2469.63 1037.5 2543.5 1052.27 2543.5 1070.5L2543.5 1202.5C2543.5 1220.73 2469.63 1235.5 2378.5 1235.5 2287.37 1235.5 2213.5 1220.73 2213.5 1202.5Z" fill="#4FD180" fill-rule="evenodd"/><path d="M2543.5 1070.5C2543.5 1088.73 2469.63 1103.5 2378.5 1103.5 2287.37 1103.5 2213.5 1088.73 2213.5 1070.5" stroke="#FFFFFF" stroke-width="4.58333" stroke-miterlimit="8" fill="none" fill-rule="evenodd"/><path d="M2213.5 1202.5 2213.5 1070.5C2213.5 1052.27 2287.37 1037.5 2378.5 1037.5 2469.63 1037.5 2543.5 1052.27 2543.5 1070.5L2543.5 1202.5C2543.5 1220.73 2469.63 1235.5 2378.5 1235.5 2287.37 1235.5 2213.5 1220.73 2213.5 1202.5Z" stroke="#FFFFFF" stroke-width="4.58333" stroke-miterlimit="8" fill="none" fill-rule="evenodd"/></g></svg>