<svg width="24" height="24" xmlns="http://www.w3.org/2000/svg" xmlns:xlink="http://www.w3.org/1999/xlink" xml:space="preserve" overflow="hidden"><defs><clipPath id="clip0"><rect x="75" y="15" width="24" height="24"/></clipPath></defs><g clip-path="url(#clip0)" transform="translate(-75 -15)"><path d="M81.4675 32.0273C81.5399 32.3495 81.7229 32.6363 81.9847 32.8377L84.7668 34.975 84.7668 36.7275C84.7668 36.8656 84.8787 36.9775 85.0168 36.9775 85.1548 36.9775 85.2668 36.8656 85.2668 36.7275L85.2668 34.8525C85.2668 34.7748 85.2308 34.7016 85.1693 34.6543L82.2895 32.4417C82.1205 32.3115 82.0023 32.1264 81.9552 31.9182L80.45 25.2085C80.3314 24.6734 80.669 24.1433 81.2041 24.0247 81.2353 24.0178 81.2668 24.0124 81.2985 24.0085 81.8218 23.9651 82.2946 24.3205 82.3985 24.8353L83.5235 29.312C83.5565 29.4461 83.6919 29.528 83.826 29.495 83.9386 29.4674 84.0173 29.3659 84.0163 29.25L84.0163 19.5363C84.0075 19.015 84.3922 18.5707 84.9092 18.5047 85.455 18.4508 85.9412 18.8494 85.9952 19.3952 85.9984 19.4273 86 19.4597 86 19.492 86.0009 19.5184 86.0063 19.5445 86.0157 19.5693L86.0157 26.75C86.0157 26.8881 86.1277 27 86.2657 27 86.4038 27 86.5157 26.8881 86.5157 26.75L86.5157 18.0363C86.507 17.515 86.8918 17.0706 87.409 17.0047 87.955 16.9509 88.4414 17.3499 88.4952 17.896 88.4984 17.9279 88.5 17.9601 88.5 17.9923L88.5 26.75C88.5 26.8881 88.6119 27 88.75 27 88.8881 27 89 26.8881 89 26.75L89 19.5363C88.9912 19.0152 89.3758 18.5708 89.8927 18.5047 90.4386 18.4506 90.925 18.8493 90.9791 19.3951 90.9824 19.4273 90.9839 19.4597 90.984 19.492L90.984 26.75C90.984 26.8881 91.0959 27 91.234 27 91.3721 27 91.484 26.8881 91.484 26.75L91.484 22.111C91.5042 22.0755 91.5153 22.0356 91.5163 21.9948 91.5162 21.4468 91.9604 21.0024 92.5084 21.0024 92.5412 21.0024 92.5739 21.004 92.6065 21.0072 93.1257 21.0761 93.5104 21.524 93.5 22.0478L93.5 30.6652C93.5002 31.6337 93.2047 32.5791 92.653 33.375L92.2552 33.95C91.9368 34.4092 91.7657 34.9545 91.7647 35.5133L91.7623 36.7285C91.7623 36.8666 91.8742 36.9785 92.0123 36.9785L92.0123 36.9785C92.1503 36.9785 92.2623 36.8666 92.2623 36.7285L92.2647 35.5115C92.2655 35.0554 92.405 34.6102 92.6647 34.2353L93.0648 33.658C93.6737 32.7795 94 31.7361 94 30.6672L94 22.0478C94.0087 21.267 93.4288 20.6045 92.6537 20.5098 92.2345 20.4699 91.8178 20.608 91.5052 20.8903 91.4977 20.897 91.4912 20.9048 91.484 20.9115L91.484 19.5542C91.4858 18.723 90.8326 18.0379 90.0023 18 89.6324 17.9976 89.2751 18.1333 89 18.3805L89 18.0443C89.011 17.2818 88.4579 16.6281 87.7043 16.5128 86.8863 16.4052 86.136 16.9811 86.0285 17.799 86.0201 17.8631 86.0158 17.9276 86.0157 17.9923L86.0157 18.3948C85.7422 18.1416 85.3834 18.0007 85.0107 18 84.1744 18.0299 83.5129 18.7184 83.5163 19.5553L83.5163 27.2085C83.5158 27.2098 83.5144 27.2105 83.5131 27.2101 83.5124 27.2099 83.5117 27.2093 83.5115 27.2085L82.8865 24.7178C82.7244 23.9537 82.0137 23.4338 81.2365 23.5105 80.4188 23.6101 79.8367 24.3538 79.9364 25.1715 79.9424 25.2204 79.9507 25.269 79.9615 25.317Z" stroke="#FFFFFF" stroke-width="0.969697" fill="#FFFFFF"/></g></svg>