<svg width="24" height="24" xmlns="http://www.w3.org/2000/svg" xmlns:xlink="http://www.w3.org/1999/xlink" xml:space="preserve" overflow="hidden"><defs><clipPath id="clip0"><rect x="5" y="199" width="24" height="24"/></clipPath></defs><g clip-path="url(#clip0)" transform="translate(-5 -199)"><path d="M17 210C15.75 210 14.75 209 14.75 207.75 14.75 206.5 15.75 205.5 17 205.5 18.25 205.5 19.25 206.5 19.25 207.75 19.25 209 18.25 210 17 210ZM17 202.5C15.275 202.5 13.65 203.35 12.675 204.8 11.7 206.225 11.5 208.05 12.125 209.675L14.5 214.925 16.55 219.225C16.625 219.4 16.8 219.5 17 219.5 17.2 219.5 17.375 219.4 17.45 219.225L19.5 214.925 21.875 209.675C22.5 208.05 22.3 206.225 21.325 204.8 20.35 203.35 18.725 202.5 17 202.5Z" fill="#767171"/></g></svg>