<svg width="24" height="24" xmlns="http://www.w3.org/2000/svg" xmlns:xlink="http://www.w3.org/1999/xlink" xml:space="preserve" overflow="hidden"><defs><clipPath id="clip0"><rect x="4" y="181" width="24" height="24"/></clipPath></defs><g clip-path="url(#clip0)" transform="translate(-4 -181)"><path d="M16 192C14.75 192 13.75 191 13.75 189.75 13.75 188.5 14.75 187.5 16 187.5 17.25 187.5 18.25 188.5 18.25 189.75 18.25 191 17.25 192 16 192ZM16 184.5C14.275 184.5 12.65 185.35 11.675 186.8 10.7 188.225 10.5 190.05 11.125 191.675L13.5 196.925 15.55 201.225C15.625 201.4 15.8 201.5 16 201.5 16.2 201.5 16.375 201.4 16.45 201.225L18.5 196.925 20.875 191.675C21.5 190.05 21.3 188.225 20.325 186.8 19.35 185.35 17.725 184.5 16 184.5Z" fill="#767171"/></g></svg>