<svg width="1342" height="1380" xmlns="http://www.w3.org/2000/svg" xmlns:xlink="http://www.w3.org/1999/xlink" xml:space="preserve" overflow="hidden"><defs><clipPath id="clip0"><rect x="849" y="632" width="1342" height="1380"/></clipPath></defs><g clip-path="url(#clip0)" transform="translate(-849 -632)"><path d="M1884.87 809.845 1852.93 734.478C1848.52 724.072 1895.95 694.015 1958.88 667.344 2021.81 640.673 2076.39 627.488 2080.8 637.894L2112.75 713.261C2117.16 723.667 2069.72 753.723 2006.8 780.394 1943.87 807.065 1889.28 820.251 1884.87 809.845Z" fill="#59BBFF" fill-rule="evenodd"/><path d="M2080.8 637.894C2085.22 648.3 2037.78 678.357 1974.85 705.028 1911.93 731.699 1857.34 744.884 1852.93 734.478" stroke="#FFFFFF" stroke-width="4.58333" stroke-miterlimit="8" fill="none" fill-rule="evenodd"/><path d="M1884.87 809.845 1852.93 734.478C1848.52 724.072 1895.95 694.015 1958.88 667.344 2021.81 640.673 2076.39 627.488 2080.8 637.894L2112.75 713.261C2117.16 723.667 2069.72 753.723 2006.8 780.394 1943.87 807.065 1889.28 820.251 1884.87 809.845Z" stroke="#FFFFFF" stroke-width="4.58333" stroke-miterlimit="8" fill="none" fill-rule="evenodd"/><path d="M1574.41 953.504 1615.88 888.254C1621.6 879.245 1673 901.659 1730.68 938.318 1788.37 974.977 1830.49 1012 1824.76 1021.01L1783.29 1086.26C1777.56 1095.27 1726.16 1072.85 1668.48 1036.19 1610.8 999.535 1568.68 962.513 1574.41 953.504Z" fill="#4FD180" fill-rule="evenodd"/><path d="M1824.76 1021.01C1819.03 1030.02 1767.63 1007.6 1709.95 970.943 1652.27 934.284 1610.15 897.263 1615.88 888.254" stroke="#FFFFFF" stroke-width="4.58333" stroke-miterlimit="8" fill="none" fill-rule="evenodd"/><path d="M1574.41 953.504 1615.88 888.254C1621.6 879.245 1673 901.659 1730.68 938.318 1788.37 974.977 1830.49 1012 1824.76 1021.01L1783.29 1086.26C1777.56 1095.27 1726.16 1072.85 1668.48 1036.19 1610.8 999.535 1568.68 962.513 1574.41 953.504Z" stroke="#FFFFFF" stroke-width="4.58333" stroke-miterlimit="8" fill="none" fill-rule="evenodd"/><path d="M1785.86 1598.88 1735.07 1533.15C1728.06 1524.07 1766.22 1482.84 1820.3 1441.05 1874.39 1399.27 1923.91 1372.75 1930.93 1381.83L1981.71 1447.57C1988.73 1456.64 1950.57 1497.87 1896.48 1539.66 1842.4 1581.44 1792.87 1607.96 1785.86 1598.88Z" fill="#F3D31D" fill-rule="evenodd"/><path d="M1930.93 1381.83C1937.94 1390.91 1899.78 1432.14 1845.7 1473.92 1791.61 1515.71 1742.08 1542.22 1735.07 1533.15" stroke="#FFFFFF" stroke-width="4.58333" stroke-miterlimit="8" fill="none" fill-rule="evenodd"/><path d="M1785.86 1598.88 1735.07 1533.15C1728.06 1524.07 1766.22 1482.84 1820.3 1441.05 1874.39 1399.27 1923.91 1372.75 1930.93 1381.83L1981.71 1447.57C1988.73 1456.64 1950.57 1497.87 1896.48 1539.66 1842.4 1581.44 1792.87 1607.96 1785.86 1598.88Z" stroke="#FFFFFF" stroke-width="4.58333" stroke-miterlimit="8" fill="none" fill-rule="evenodd"/><path d="M1940.5 1167.33 1940.5 1082.67C1940.5 1070.98 1996.02 1061.5 2064.5 1061.5 2132.98 1061.5 2188.5 1070.98 2188.5 1082.67L2188.5 1167.33C2188.5 1179.02 2132.98 1188.5 2064.5 1188.5 1996.02 1188.5 1940.5 1179.02 1940.5 1167.33Z" fill="#585BFF" fill-rule="evenodd"/><path d="M2188.5 1082.67C2188.5 1094.36 2132.98 1103.83 2064.5 1103.83 1996.02 1103.83 1940.5 1094.36 1940.5 1082.67" stroke="#FFFFFF" stroke-width="4.58333" stroke-miterlimit="8" fill="none" fill-rule="evenodd"/><path d="M1940.5 1167.33 1940.5 1082.67C1940.5 1070.98 1996.02 1061.5 2064.5 1061.5 2132.98 1061.5 2188.5 1070.98 2188.5 1082.67L2188.5 1167.33C2188.5 1179.02 2132.98 1188.5 2064.5 1188.5 1996.02 1188.5 1940.5 1179.02 1940.5 1167.33Z" stroke="#FFFFFF" stroke-width="4.58333" stroke-miterlimit="8" fill="none" fill-rule="evenodd"/><path d="M1374.11 1951.32 1359.04 1868.38C1356.96 1856.93 1409.79 1837.74 1477.03 1825.52 1544.27 1813.3 1600.47 1812.68 1602.55 1824.13L1617.62 1907.07C1619.7 1918.53 1566.88 1937.71 1499.64 1949.93 1432.39 1962.15 1376.19 1962.77 1374.11 1951.32Z" fill="#A14FFF" fill-rule="evenodd"/><path d="M1602.55 1824.13C1604.63 1835.59 1551.81 1854.77 1484.57 1866.99 1417.32 1879.21 1361.12 1879.83 1359.04 1868.38" stroke="#FFFFFF" stroke-width="4.58333" stroke-miterlimit="8" fill="none" fill-rule="evenodd"/><path d="M1374.11 1951.32 1359.04 1868.38C1356.96 1856.93 1409.79 1837.74 1477.03 1825.52 1544.27 1813.3 1600.47 1812.68 1602.55 1824.13L1617.62 1907.07C1619.7 1918.53 1566.88 1937.71 1499.64 1949.93 1432.39 1962.15 1376.19 1962.77 1374.11 1951.32Z" stroke="#FFFFFF" stroke-width="4.58333" stroke-miterlimit="8" fill="none" fill-rule="evenodd"/><path d="M1459.84 1335.05 1445.48 1253.23C1443.5 1241.93 1496.46 1223.2 1563.78 1211.39 1631.1 1199.58 1687.28 1199.17 1689.26 1210.46L1703.61 1292.28C1705.59 1303.58 1652.63 1322.31 1585.31 1334.12 1517.99 1345.93 1461.82 1346.35 1459.84 1335.05Z" fill="#F16F61" fill-rule="evenodd"/><path d="M1689.26 1210.46C1691.24 1221.76 1638.28 1240.49 1570.96 1252.3 1503.64 1264.11 1447.46 1264.53 1445.48 1253.23" stroke="#FFFFFF" stroke-width="4.58333" stroke-miterlimit="8" fill="none" fill-rule="evenodd"/><path d="M1459.84 1335.05 1445.48 1253.23C1443.5 1241.93 1496.46 1223.2 1563.78 1211.39 1631.1 1199.58 1687.28 1199.17 1689.26 1210.46L1703.61 1292.28C1705.59 1303.58 1652.63 1322.31 1585.31 1334.12 1517.99 1345.93 1461.82 1346.35 1459.84 1335.05Z" stroke="#FFFFFF" stroke-width="4.58333" stroke-miterlimit="8" fill="none" fill-rule="evenodd"/><path d="M1364.81 1708.96 1332.87 1633.59C1328.46 1623.19 1375.9 1593.13 1438.82 1566.46 1501.75 1539.79 1556.34 1526.6 1560.75 1537.01L1592.69 1612.38C1597.1 1622.78 1549.66 1652.84 1486.74 1679.51 1423.81 1706.18 1369.22 1719.37 1364.81 1708.96Z" fill="#59BBFF" fill-rule="evenodd"/><path d="M1560.75 1537.01C1565.16 1547.42 1517.72 1577.47 1454.79 1604.14 1391.87 1630.82 1337.28 1644 1332.87 1633.59" stroke="#FFFFFF" stroke-width="4.58333" stroke-miterlimit="8" fill="none" fill-rule="evenodd"/><path d="M1364.81 1708.96 1332.87 1633.59C1328.46 1623.19 1375.9 1593.13 1438.82 1566.46 1501.75 1539.79 1556.34 1526.6 1560.75 1537.01L1592.69 1612.38C1597.1 1622.78 1549.66 1652.84 1486.74 1679.51 1423.81 1706.18 1369.22 1719.37 1364.81 1708.96Z" stroke="#FFFFFF" stroke-width="4.58333" stroke-miterlimit="8" fill="none" fill-rule="evenodd"/><path d="M877.961 2003.97 851.933 1923.79C848.339 1912.72 898.124 1886.64 963.13 1865.54 1028.14 1844.44 1083.75 1836.31 1087.34 1847.38L1113.37 1927.56C1116.96 1938.63 1067.18 1964.71 1002.17 1985.81 937.166 2006.91 881.555 2015.05 877.961 2003.97Z" fill="#585BFF" fill-rule="evenodd"/><path d="M1087.34 1847.38C1090.93 1858.45 1041.15 1884.53 976.144 1905.63 911.138 1926.73 855.527 1934.87 851.933 1923.79" stroke="#FFFFFF" stroke-width="4.58333" stroke-miterlimit="8" fill="none" fill-rule="evenodd"/><path d="M877.961 2003.97 851.933 1923.79C848.339 1912.72 898.124 1886.64 963.13 1865.54 1028.14 1844.44 1083.75 1836.31 1087.34 1847.38L1113.37 1927.56C1116.96 1938.63 1067.18 1964.71 1002.17 1985.81 937.166 2006.91 881.555 2015.05 877.961 2003.97Z" stroke="#FFFFFF" stroke-width="4.58333" stroke-miterlimit="8" fill="none" fill-rule="evenodd"/><path d="M929.532 1605.59 965.96 1530.94C970.99 1520.63 1024.86 1536.57 1086.28 1566.54 1147.71 1596.51 1193.42 1629.16 1188.39 1639.47L1151.97 1714.13C1146.94 1724.44 1093.07 1708.5 1031.64 1678.53 970.218 1648.56 924.502 1615.9 929.532 1605.59Z" fill="#F16F61" fill-rule="evenodd"/><path d="M1188.39 1639.47C1183.36 1649.78 1129.49 1633.84 1068.07 1603.87 1006.65 1573.9 960.93 1541.24 965.96 1530.94" stroke="#FFFFFF" stroke-width="4.58333" stroke-miterlimit="8" fill="none" fill-rule="evenodd"/><path d="M929.532 1605.59 965.96 1530.94C970.99 1520.63 1024.86 1536.57 1086.28 1566.54 1147.71 1596.51 1193.42 1629.16 1188.39 1639.47L1151.97 1714.13C1146.94 1724.44 1093.07 1708.5 1031.64 1678.53 970.218 1648.56 924.502 1615.9 929.532 1605.59Z" stroke="#FFFFFF" stroke-width="4.58333" stroke-miterlimit="8" fill="none" fill-rule="evenodd"/><path d="M1123.27 1432.1 1132.64 1345.54C1133.93 1333.59 1190.06 1329.86 1258.01 1337.22 1325.96 1344.57 1380 1360.22 1378.7 1372.17L1369.33 1458.73C1368.04 1470.68 1311.91 1474.41 1243.96 1467.06 1176.01 1459.7 1121.98 1444.05 1123.27 1432.1Z" fill="#F3D31D" fill-rule="evenodd"/><path d="M1378.7 1372.17C1377.41 1384.12 1321.28 1387.85 1253.33 1380.5 1185.38 1373.14 1131.35 1357.49 1132.64 1345.54" stroke="#FFFFFF" stroke-width="4.58333" stroke-miterlimit="8" fill="none" fill-rule="evenodd"/><path d="M1123.27 1432.1 1132.64 1345.54C1133.93 1333.59 1190.06 1329.86 1258.01 1337.22 1325.96 1344.57 1380 1360.22 1378.7 1372.17L1369.33 1458.73C1368.04 1470.68 1311.91 1474.41 1243.96 1467.06 1176.01 1459.7 1121.98 1444.05 1123.27 1432.1Z" stroke="#FFFFFF" stroke-width="4.58333" stroke-miterlimit="8" fill="none" fill-rule="evenodd"/></g></svg>