<svg width="335" height="203" xmlns="http://www.w3.org/2000/svg" xmlns:xlink="http://www.w3.org/1999/xlink" xml:space="preserve" overflow="hidden"><defs><clipPath id="clip0"><rect x="2669" y="249" width="335" height="203"/></clipPath></defs><g clip-path="url(#clip0)" transform="translate(-2669 -249)"><path d="M2671.5 416.5 2671.5 284.5C2671.5 266.275 2745.37 251.5 2836.5 251.5 2927.63 251.5 3001.5 266.275 3001.5 284.5L3001.5 416.5C3001.5 434.726 2927.63 449.5 2836.5 449.5 2745.37 449.5 2671.5 434.726 2671.5 416.5Z" fill="#585BFF" fill-rule="evenodd"/><path d="M3001.5 284.5C3001.5 302.726 2927.63 317.5 2836.5 317.5 2745.37 317.5 2671.5 302.726 2671.5 284.5" stroke="#FFFFFF" stroke-width="4.58333" stroke-miterlimit="8" fill="none" fill-rule="evenodd"/><path d="M2671.5 416.5 2671.5 284.5C2671.5 266.275 2745.37 251.5 2836.5 251.5 2927.63 251.5 3001.5 266.275 3001.5 284.5L3001.5 416.5C3001.5 434.726 2927.63 449.5 2836.5 449.5 2745.37 449.5 2671.5 434.726 2671.5 416.5Z" stroke="#FFFFFF" stroke-width="4.58333" stroke-miterlimit="8" fill="none" fill-rule="evenodd"/></g></svg>