<svg width="335" height="203" xmlns="http://www.w3.org/2000/svg" xmlns:xlink="http://www.w3.org/1999/xlink" xml:space="preserve" overflow="hidden"><defs><clipPath id="clip0"><rect x="2069" y="571" width="335" height="203"/></clipPath></defs><g clip-path="url(#clip0)" transform="translate(-2069 -571)"><path d="M2071.5 738.5 2071.5 606.5C2071.5 588.274 2145.37 573.5 2236.5 573.5 2327.63 573.5 2401.5 588.274 2401.5 606.5L2401.5 738.5C2401.5 756.725 2327.63 771.5 2236.5 771.5 2145.37 771.5 2071.5 756.725 2071.5 738.5Z" fill="#E3491A" fill-rule="evenodd"/><path d="M2401.5 606.5C2401.5 624.725 2327.63 639.5 2236.5 639.5 2145.37 639.5 2071.5 624.725 2071.5 606.5" stroke="#FFFFFF" stroke-width="4.58333" stroke-miterlimit="8" fill="none" fill-rule="evenodd"/><path d="M2071.5 738.5 2071.5 606.5C2071.5 588.274 2145.37 573.5 2236.5 573.5 2327.63 573.5 2401.5 588.274 2401.5 606.5L2401.5 738.5C2401.5 756.725 2327.63 771.5 2236.5 771.5 2145.37 771.5 2071.5 756.725 2071.5 738.5Z" stroke="#FFFFFF" stroke-width="4.58333" stroke-miterlimit="8" fill="none" fill-rule="evenodd"/></g></svg>