<svg width="24" height="24" xmlns="http://www.w3.org/2000/svg" xmlns:xlink="http://www.w3.org/1999/xlink" xml:space="preserve" overflow="hidden"><defs><clipPath id="clip0"><rect x="11" y="71" width="24" height="24"/></clipPath></defs><g clip-path="url(#clip0)" transform="translate(-11 -71)"><path d="M29.1 71.775 11.775 89.1 16.9 94.225 34.2 76.925 29.1 71.775ZM29.45 79.55 27.5 81.5 25.95 79.95 25.25 80.65 26.8 82.2 24.85 84.15 23.3 82.6 22.6 83.3 24.15 84.85 22.2 86.8 20.65 85.25 19.95 85.95 21.5 87.5 19.55 89.45 18 87.9 17.3 88.6 18.85 90.15 16.925 92.075 13.925 89.075 29.1 73.9 32.1 76.9 30.175 78.825 28.625 77.275 27.9 78 29.45 79.55Z" fill="#767171"/></g></svg>