<svg width="24" height="24" xmlns="http://www.w3.org/2000/svg" xmlns:xlink="http://www.w3.org/1999/xlink" xml:space="preserve" overflow="hidden"><defs><clipPath id="clip0"><rect x="130" y="17" width="24" height="24"/></clipPath></defs><g clip-path="url(#clip0)" transform="translate(-130 -17)"><path d="M148.1 17.775 130.775 35.1 135.9 40.225 153.2 22.925 148.1 17.775ZM148.45 25.55 146.5 27.5 144.95 25.95 144.25 26.65 145.8 28.2 143.85 30.15 142.3 28.6 141.6 29.3 143.15 30.85 141.2 32.8 139.65 31.25 138.95 31.95 140.5 33.5 138.55 35.45 137 33.9 136.3 34.6 137.85 36.15 135.925 38.075 132.925 35.075 148.1 19.9 151.1 22.9 149.175 24.825 147.625 23.275 146.9 24 148.45 25.55Z" fill="#FFFFFF"/></g></svg>