<svg width="31" height="23" xmlns="http://www.w3.org/2000/svg" xmlns:xlink="http://www.w3.org/1999/xlink" xml:space="preserve" overflow="hidden"><defs><clipPath id="clip0"><rect x="4" y="147" width="31" height="23"/></clipPath></defs><g clip-path="url(#clip0)" transform="translate(-4 -147)"><path d="M11.5 20.676C9.94271 20.676 8.57708 19.574 8.24167 18.0646 7.88229 16.5312 8.64896 14.974 10.0625 14.3031L10.0625 3.76146C10.0625 2.97083 10.7094 2.32396 11.5 2.32396 12.2906 2.32396 12.9375 2.97083 12.9375 3.76146L12.9375 14.3031C14.351 14.974 15.0938 16.5312 14.7583 18.0646 14.399 19.574 13.0573 20.6521 11.5 20.676L11.5 20.676ZM14.375 13.4885 14.375 3.76146C14.375 2.18021 13.0812 0.886458 11.5 0.886458 9.91875 0.886458 8.625 2.15625 8.625 3.76146L8.625 13.4885C6.97187 14.7344 6.30104 16.8906 6.94792 18.8312 7.59479 20.7958 9.43958 22.1135 11.5 22.1135 13.5604 22.1135 15.4052 20.7958 16.0521 18.8312 16.699 16.8906 16.0281 14.7344 14.375 13.4885Z" fill="#767171" transform="matrix(1.34783 0 0 1 4 147)"/><path d="M11.9792 14.974 11.9792 9.17604 11.0208 9.17604 11.0208 14.974C9.82292 15.2135 8.98438 16.3396 9.12812 17.5615 9.24792 18.7833 10.2781 19.7177 11.5 19.7177 12.7219 19.7177 13.7521 18.7833 13.8719 17.5615 14.0156 16.3396 13.1771 15.2135 11.9792 14.974Z" fill="#767171" transform="matrix(1.34783 0 0 1 4 147)"/></g></svg>