<svg width="25" height="25" xmlns="http://www.w3.org/2000/svg" xmlns:xlink="http://www.w3.org/1999/xlink" xml:space="preserve" overflow="hidden"><defs><clipPath id="clip0"><rect x="8" y="111" width="24" height="24"/></clipPath></defs><g clip-path="url(#clip0)" transform="translate(-8 -111)"><path d="M12 21.575C10.375 21.575 8.95 20.425 8.6 18.85 8.225 17.25 9.025 15.625 10.5 14.925L10.5 3.925C10.5 3.1 11.175 2.425 12 2.425 12.825 2.425 13.5 3.1 13.5 3.925L13.5 14.925C14.975 15.625 15.75 17.25 15.4 18.85 15.025 20.425 13.625 21.55 12 21.575L12 21.575ZM15 14.075 15 3.925C15 2.275 13.65 0.925 12 0.925 10.35 0.925 9 2.25 9 3.925L9 14.075C7.275 15.375 6.575 17.625 7.25 19.65 7.925 21.7 9.85 23.075 12 23.075 14.15 23.075 16.075 21.7 16.75 19.65 17.425 17.625 16.725 15.375 15 14.075Z" fill="#767171" transform="matrix(1.31999 0 0 1 4.16009 111)"/><path d="M12.5 15.625 12.5 9.575 11.5 9.575 11.5 15.625C10.25 15.875 9.375 17.05 9.525 18.325 9.65 19.6 10.725 20.575 12 20.575 13.275 20.575 14.35 19.6 14.475 18.325 14.625 17.05 13.75 15.875 12.5 15.625Z" fill="#767171" transform="matrix(1.31999 0 0 1 4.16009 111)"/></g></svg>