<svg width="731" height="262" xmlns="http://www.w3.org/2000/svg" xmlns:xlink="http://www.w3.org/1999/xlink" xml:space="preserve" overflow="hidden"><defs><clipPath id="clip0"><rect x="304" y="221" width="731" height="262"/></clipPath></defs><g clip-path="url(#clip0)" transform="translate(-304 -221)"><path d="M321.694 310.317 338.472 310.317 338.026 312.303C336.837 312.438 335.912 312.789 335.25 313.357 334.588 313.924 334.122 314.714 333.852 315.727 333.582 316.741 333.446 318.098 333.446 319.8 333.446 320.206 333.487 321.422 333.568 323.448L334.703 353.114 334.703 356.356 335.108 356.356 352.656 324.704C353.683 322.84 354.453 321.239 354.966 319.902 355.48 318.564 355.736 317.382 355.736 316.356 355.736 314.086 354.386 312.735 351.684 312.303L352.13 310.317 368.705 310.317 368.259 312.303C367.53 312.411 366.834 312.688 366.172 313.134 365.51 313.579 364.767 314.322 363.943 315.363 363.119 316.403 361.843 318.409 360.113 321.381L334.176 366.285 328.786 366.285 326.07 321.097C325.962 319.341 325.767 317.835 325.483 316.578 325.199 315.322 324.753 314.343 324.145 313.64 323.538 312.938 322.572 312.492 321.248 312.303Z" fill-rule="evenodd"/><text fill="#000000" fill-opacity="0" font-family="Arial,Arial_MSFontService,sans-serif" font-size="55.9683" x="321.248" y="359.289">𝑉</text><path d="M400.528 347.643 450.458 347.643 450.458 353.033 400.528 353.033ZM400.528 330.824 450.458 330.824 450.458 336.214 400.528 336.214Z" fill-rule="evenodd"/><text fill="#000000" fill-opacity="0" font-family="Arial,Arial_MSFontService,sans-serif" font-size="22.209" x="400.528" y="350.257">=</text><path d="M502.584 309.669C507.61 309.669 511.406 310.77 513.972 312.972 516.539 315.174 517.822 318.368 517.822 322.556 517.822 323.988 517.681 325.305 517.397 326.508 517.113 327.71 516.667 328.899 516.06 330.074 515.452 331.249 514.634 332.513 513.608 333.863 512.581 335.214 511.446 336.585 510.203 337.977 508.96 339.368 506.813 341.685 503.759 344.927 498.626 350.358 494.857 355.1 492.452 359.152L507.731 359.152C509.055 359.152 510.122 359.071 510.933 358.909 511.743 358.747 512.392 358.477 512.878 358.099 513.364 357.72 513.749 357.227 514.033 356.62 514.317 356.012 514.675 355.073 515.107 353.803L518.552 353.803 517.863 365.637 484.509 365.637 484.509 363.692C485.671 360.855 487.238 357.95 489.21 354.978 491.182 352.006 493.979 348.507 497.599 344.482 500.733 341.023 502.989 338.402 504.367 336.619 505.88 334.674 507.008 332.992 507.751 331.574 508.494 330.155 509.028 328.818 509.352 327.561 509.676 326.305 509.839 325.042 509.839 323.772 509.839 321.746 509.514 319.956 508.866 318.402 508.217 316.849 507.225 315.626 505.887 314.734 504.55 313.843 502.868 313.397 500.841 313.397 495.789 313.397 492.385 316.207 490.629 321.827L485.725 321.827 485.725 314.046C488.994 312.505 492.054 311.391 494.904 310.702 497.755 310.013 500.315 309.669 502.584 309.669Z" fill-rule="evenodd"/><text fill="#000000" fill-opacity="0" font-family="Arial,Arial_MSFontService,sans-serif" font-size="55.9683" x="484.509" y="358.641">2</text><path d="M540.434 326.893 573.707 326.893 572.531 332.242 562.886 332.242 558.306 352.547C557.712 355.194 557.415 357.194 557.415 358.545 557.415 359.625 557.59 360.409 557.941 360.895 558.293 361.381 558.846 361.625 559.603 361.625 561.224 361.625 563.129 360.328 565.317 357.734L567.668 359.922C565.615 362.165 563.744 363.786 562.055 364.786 560.366 365.785 558.563 366.285 556.645 366.285 554.807 366.285 553.362 365.657 552.308 364.401 551.254 363.144 550.728 361.49 550.728 359.436 550.728 357.626 551.106 355.005 551.862 351.574L552.754 347.481C553.213 345.319 553.868 342.712 554.719 339.659 555.571 336.606 556.307 334.255 556.928 332.607L556.726 332.242 544.811 332.242 539.826 355.302C539.42 357.113 538.948 359.065 538.407 361.159 537.867 363.252 537.448 364.745 537.151 365.637L528.559 365.637 528.964 363.651C531.828 360.814 534.476 354.168 536.908 343.712L539.583 332.242 538.286 332.242C536.367 332.242 534.746 332.567 533.422 333.215 532.098 333.863 530.653 335.16 529.086 337.106L526.533 334.958C527.938 333.255 529.086 331.959 529.978 331.067 530.869 330.175 531.808 329.419 532.794 328.797 533.78 328.176 534.888 327.703 536.117 327.379 537.347 327.055 538.785 326.893 540.434 326.893Z" fill-rule="evenodd"/><text fill="#000000" fill-opacity="0" font-family="Arial,Arial_MSFontService,sans-serif" font-size="39.3926" x="526.533" y="361.361">𝜋</text><path d="M640.067 252.684C641.499 252.684 642.803 252.812 643.978 253.069 645.153 253.325 646.146 253.643 646.957 254.021L646.187 262.491 641.688 262.491C641.607 261.005 641.283 259.877 640.715 259.107 640.148 258.337 639.108 257.952 637.595 257.952 633.812 257.952 631.056 262.207 629.327 270.718 627.598 279.229 626.045 302.721 624.667 341.195 623.289 375.806 620.607 399.46 616.622 412.159 612.637 424.857 607.253 431.206 600.472 431.206 599.094 431.206 597.824 431.098 596.662 430.882 595.5 430.666 594.474 430.315 593.582 429.829L594.352 420.953 598.445 420.953C598.851 422.736 599.378 423.986 600.026 424.702 600.674 425.418 601.661 425.776 602.984 425.776 605.416 425.776 607.753 421.574 609.996 413.172 612.238 404.769 613.994 382.79 615.264 347.234 616.831 308.652 619.351 283.248 622.823 271.022 626.294 258.796 632.043 252.684 640.067 252.684Z" fill-rule="evenodd"/><text fill="#000000" fill-opacity="0" font-family="Arial,Arial_MSFontService,sans-serif" font-size="178.523" x="593.582" y="408.891">න</text><path d="M720.367 252.684C721.799 252.684 723.103 252.812 724.278 253.069 725.453 253.325 726.446 253.643 727.257 254.021L726.487 262.491 721.988 262.491C721.907 261.005 721.583 259.877 721.015 259.107 720.448 258.337 719.408 257.952 717.895 257.952 714.112 257.952 711.356 262.207 709.627 270.718 707.898 279.229 706.345 302.721 704.967 341.195 703.589 375.806 700.907 399.46 696.922 412.159 692.937 424.857 687.553 431.206 680.772 431.206 679.394 431.206 678.124 431.098 676.962 430.882 675.8 430.666 674.774 430.315 673.882 429.829L674.652 420.953 678.745 420.953C679.151 422.736 679.678 423.986 680.326 424.702 680.974 425.418 681.961 425.776 683.284 425.776 685.716 425.776 688.053 421.574 690.296 413.172 692.538 404.769 694.294 382.79 695.564 347.234 697.131 308.652 699.651 283.248 703.123 271.022 706.594 258.796 712.343 252.684 720.367 252.684Z" fill-rule="evenodd"/><text fill="#000000" fill-opacity="0" font-family="Arial,Arial_MSFontService,sans-serif" font-size="178.523" x="673.882" y="408.891">න</text><path d="M779.106 313.883C777.674 313.883 776.161 313.937 774.567 314.046L769.38 337.511 774.162 337.511C778.08 337.511 781.173 336.984 783.443 335.93 785.712 334.877 787.509 333.147 788.833 330.743 790.157 328.338 790.819 325.744 790.819 322.962 790.819 321.8 790.711 320.766 790.495 319.861 790.279 318.956 789.995 318.206 789.644 317.612 789.292 317.018 788.846 316.491 788.306 316.031 787.766 315.572 787.09 315.174 786.28 314.836 785.469 314.498 784.53 314.255 783.463 314.106 782.396 313.958 780.944 313.883 779.106 313.883ZM762.855 310.317 780.89 310.317C783.754 310.317 786.091 310.486 787.901 310.824 789.711 311.161 791.258 311.668 792.541 312.343 793.825 313.019 794.899 313.89 795.763 314.957 796.628 316.025 797.276 317.227 797.708 318.564 798.141 319.902 798.357 321.327 798.357 322.84 798.357 327.001 797.087 330.54 794.547 333.458 792.008 336.376 788.266 338.592 783.321 340.105L783.321 340.55C784.618 341.523 785.665 342.685 786.462 344.036 787.259 345.387 787.901 347.264 788.387 349.669L789.319 354.37C789.617 355.856 789.954 357.194 790.333 358.382 790.711 359.571 791.163 360.517 791.69 361.219 792.217 361.922 792.811 362.449 793.473 362.8 794.135 363.151 795.101 363.435 796.371 363.651L795.966 365.637 784.74 365.637C783.875 363.232 783.105 360.368 782.43 357.045L780.646 348.453C780.349 346.967 779.991 345.718 779.573 344.704 779.154 343.691 778.654 342.908 778.073 342.354 777.492 341.8 776.817 341.435 776.047 341.26 775.277 341.084 774.338 340.996 773.23 340.996L768.61 340.996 765.773 353.843C765.53 354.897 765.361 355.735 765.266 356.356 765.172 356.978 765.091 357.633 765.023 358.322 764.956 359.011 764.922 359.625 764.922 360.166 764.922 361.003 765.057 361.658 765.327 362.131 765.597 362.604 766.003 362.949 766.543 363.165 767.083 363.381 768.015 363.543 769.339 363.651L768.894 365.637 752.237 365.637 752.683 363.651C753.709 363.489 754.479 363.225 754.993 362.861 755.506 362.496 755.938 361.989 756.29 361.341 756.641 360.693 756.965 359.902 757.262 358.97 757.559 358.038 758.005 356.234 758.6 353.56L765.489 322.354C766.084 319.652 766.381 317.517 766.381 315.95 766.381 314.626 766.07 313.708 765.449 313.194 764.827 312.681 763.814 312.384 762.409 312.303Z" fill-rule="evenodd"/><text fill="#000000" fill-opacity="0" font-family="Arial,Arial_MSFontService,sans-serif" font-size="55.3198" x="752.237" y="358.722">𝑅</text><path d="M949.272 329.405C946.516 329.405 944.044 330.52 941.855 332.749 939.667 334.978 937.944 337.984 936.688 341.766 935.432 345.549 934.803 349.318 934.803 353.073 934.803 355.883 935.188 357.984 935.958 359.375 936.728 360.767 938.019 361.463 939.829 361.463 940.666 361.463 941.517 361.28 942.382 360.915 943.247 360.551 944.145 359.963 945.077 359.152 946.009 358.342 946.928 357.356 947.833 356.194 948.738 355.032 949.569 353.864 950.325 352.688 951.082 351.513 951.784 350.122 952.433 348.514 953.081 346.906 953.635 344.968 954.094 342.698L954.459 340.956C954.864 339.01 955.067 337.173 955.067 335.444 955.067 333.337 954.621 331.803 953.73 330.844 952.838 329.885 951.352 329.405 949.272 329.405ZM849.272 329.405C846.516 329.405 844.044 330.52 841.855 332.749 839.667 334.978 837.944 337.984 836.688 341.766 835.432 345.549 834.803 349.318 834.803 353.073 834.803 355.883 835.188 357.984 835.958 359.375 836.728 360.767 838.019 361.463 839.829 361.463 840.666 361.463 841.517 361.28 842.382 360.915 843.247 360.551 844.145 359.963 845.077 359.152 846.009 358.342 846.928 357.356 847.833 356.194 848.738 355.032 849.569 353.864 850.325 352.688 851.082 351.513 851.784 350.122 852.433 348.514 853.081 346.906 853.635 344.968 854.094 342.698L854.459 340.956C854.864 339.01 855.067 337.173 855.067 335.444 855.067 333.337 854.621 331.803 853.73 330.844 852.838 329.885 851.352 329.405 849.272 329.405ZM900.554 313.883C899.122 313.883 897.609 313.937 896.015 314.046L890.828 337.511 895.61 337.511C899.528 337.511 902.621 336.984 904.891 335.93 907.16 334.877 908.957 333.147 910.281 330.743 911.605 328.338 912.267 325.744 912.267 322.962 912.267 321.8 912.159 320.766 911.943 319.861 911.726 318.956 911.443 318.206 911.091 317.612 910.74 317.018 910.294 316.491 909.754 316.031 909.214 315.572 908.538 315.174 907.728 314.836 906.917 314.498 905.978 314.255 904.911 314.106 903.844 313.958 902.392 313.883 900.554 313.883ZM984.222 310.317 1019.32 310.317 1018.87 312.262 981.993 361.908 994.962 361.908C996.34 361.908 997.454 361.793 998.305 361.564 999.156 361.334 999.906 360.99 1000.55 360.53 1001.2 360.071 1001.86 359.45 1002.54 358.666 1003.22 357.883 1003.9 356.917 1004.59 355.768 1005.28 354.62 1006.07 353.019 1006.96 350.966L1010.85 350.966 1007.73 365.637 971.78 365.637 972.185 363.651 1008.98 314.046 996.542 314.046C995.029 314.046 993.827 314.181 992.935 314.451 992.044 314.721 991.213 315.201 990.443 315.89 989.673 316.578 988.869 317.538 988.031 318.767 987.194 319.996 986.221 321.746 985.113 324.015L981.223 324.015ZM884.303 310.317 902.338 310.317C905.202 310.317 907.539 310.486 909.349 310.824 911.159 311.161 912.706 311.668 913.989 312.343 915.273 313.019 916.347 313.89 917.211 314.957 918.076 316.025 918.724 317.227 919.156 318.564 919.589 319.902 919.805 321.327 919.805 322.84 919.805 327.001 918.535 330.54 915.995 333.458 913.456 336.376 909.714 338.592 904.769 340.105L904.769 340.55C906.066 341.523 907.113 342.685 907.91 344.036 908.707 345.387 909.349 347.264 909.835 349.669L910.767 354.37C911.064 355.856 911.402 357.194 911.78 358.382 912.159 359.571 912.611 360.517 913.138 361.219 913.665 361.922 914.259 362.449 914.921 362.8 915.583 363.151 916.549 363.435 917.819 363.651L917.414 365.637 906.188 365.637C905.323 363.232 904.553 360.368 903.878 357.045L902.094 348.453C901.797 346.967 901.439 345.718 901.02 344.704 900.602 343.691 900.102 342.908 899.521 342.354 898.94 341.8 898.265 341.435 897.495 341.26 896.725 341.084 895.786 340.996 894.678 340.996L890.058 340.996 887.221 353.843C886.978 354.897 886.809 355.735 886.714 356.356 886.62 356.978 886.539 357.633 886.471 358.322 886.404 359.011 886.37 359.625 886.37 360.166 886.37 361.003 886.505 361.658 886.775 362.131 887.045 362.604 887.451 362.949 887.991 363.165 888.531 363.381 889.463 363.543 890.787 363.651L890.341 365.637 873.685 365.637 874.131 363.651C875.157 363.489 875.927 363.225 876.441 362.861 876.954 362.496 877.386 361.989 877.737 361.341 878.089 360.693 878.413 359.902 878.71 358.97 879.007 358.038 879.453 356.234 880.048 353.56L886.937 322.354C887.532 319.652 887.829 317.517 887.829 315.95 887.829 314.626 887.518 313.708 886.897 313.194 886.275 312.681 885.262 312.384 883.857 312.303ZM966.253 307.683 968.644 307.683 958.552 352.547C957.958 355.194 957.661 357.194 957.661 358.545 957.661 359.625 957.836 360.409 958.188 360.895 958.539 361.381 959.093 361.625 959.849 361.625 960.66 361.625 961.524 361.294 962.443 360.632 963.362 359.97 964.659 358.707 966.334 356.842L968.644 359.112C966.158 361.733 964.064 363.583 962.362 364.664 960.66 365.745 958.823 366.285 956.85 366.285 955.175 366.285 953.838 365.731 952.838 364.624 951.838 363.516 951.339 362.043 951.339 360.206 951.339 358.72 951.649 357.14 952.271 355.464L951.744 355.302C949.15 359.085 946.691 361.854 944.368 363.61 942.044 365.367 939.586 366.245 936.992 366.245 934.02 366.245 931.717 365.124 930.082 362.881 928.447 360.638 927.63 357.491 927.63 353.438 927.63 348.791 928.542 344.326 930.366 340.044 932.189 335.761 934.695 332.384 937.883 329.912 941.072 327.44 944.625 326.204 948.542 326.204 950.19 326.204 951.71 326.373 953.102 326.71 954.493 327.048 955.918 327.636 957.377 328.473L959.485 319.111C959.701 318.22 959.89 317.234 960.052 316.153 960.214 315.072 960.295 314.127 960.295 313.316 960.295 312.505 960.146 311.891 959.849 311.472 959.552 311.053 959.127 310.749 958.573 310.56 958.019 310.371 957.026 310.236 955.594 310.155L956.08 308.047ZM866.253 307.683 868.644 307.683 858.552 352.547C857.958 355.194 857.661 357.194 857.661 358.545 857.661 359.625 857.836 360.409 858.188 360.895 858.539 361.381 859.093 361.625 859.849 361.625 860.66 361.625 861.524 361.294 862.443 360.632 863.362 359.97 864.659 358.707 866.334 356.842L868.644 359.112C866.158 361.733 864.064 363.583 862.362 364.664 860.66 365.745 858.823 366.285 856.85 366.285 855.175 366.285 853.838 365.731 852.838 364.624 851.838 363.516 851.339 362.043 851.339 360.206 851.339 358.72 851.649 357.14 852.271 355.464L851.744 355.302C849.15 359.085 846.691 361.854 844.368 363.61 842.044 365.367 839.586 366.245 836.992 366.245 834.02 366.245 831.717 365.124 830.082 362.881 828.447 360.638 827.63 357.491 827.63 353.438 827.63 348.791 828.542 344.326 830.366 340.044 832.189 335.761 834.695 332.384 837.883 329.912 841.072 327.44 844.625 326.204 848.542 326.204 850.19 326.204 851.71 326.373 853.102 326.71 854.493 327.048 855.918 327.636 857.377 328.473L859.485 319.111C859.701 318.22 859.89 317.234 860.052 316.153 860.214 315.072 860.295 314.127 860.295 313.316 860.295 312.505 860.146 311.891 859.849 311.472 859.552 311.053 859.127 310.749 858.573 310.56 858.019 310.371 857.026 310.236 855.594 310.155L856.08 308.047Z" fill-rule="evenodd"/><text fill="#000000" fill-opacity="0" font-family="Arial,Arial_MSFontService,sans-serif" font-size="58.6025" x="827.63" y="358.96">𝑑𝑅𝑑𝑍</text></g></svg>