<svg width="335" height="203" xmlns="http://www.w3.org/2000/svg" xmlns:xlink="http://www.w3.org/1999/xlink" xml:space="preserve" overflow="hidden"><defs><clipPath id="clip0"><rect x="2673" y="703" width="335" height="203"/></clipPath></defs><g clip-path="url(#clip0)" transform="translate(-2673 -703)"><path d="M2675.5 870.5 2675.5 738.5C2675.5 720.274 2749.37 705.5 2840.5 705.5 2931.63 705.5 3005.5 720.274 3005.5 738.5L3005.5 870.5C3005.5 888.725 2931.63 903.5 2840.5 903.5 2749.37 903.5 2675.5 888.725 2675.5 870.5Z" fill="#F3D31D" fill-rule="evenodd"/><path d="M3005.5 738.5C3005.5 756.725 2931.63 771.5 2840.5 771.5 2749.37 771.5 2675.5 756.725 2675.5 738.5" stroke="#FFFFFF" stroke-width="4.58333" stroke-miterlimit="8" fill="none" fill-rule="evenodd"/><path d="M2675.5 870.5 2675.5 738.5C2675.5 720.274 2749.37 705.5 2840.5 705.5 2931.63 705.5 3005.5 720.274 3005.5 738.5L3005.5 870.5C3005.5 888.725 2931.63 903.5 2840.5 903.5 2749.37 903.5 2675.5 888.725 2675.5 870.5Z" stroke="#FFFFFF" stroke-width="4.58333" stroke-miterlimit="8" fill="none" fill-rule="evenodd"/></g></svg>